<svg xmlns="http://www.w3.org/2000/svg" xmlns:xlink="http://www.w3.org/1999/xlink" viewBox="0 0 92.45 89.92"><defs><style>.cls-1{fill:none;}.cls-2{clip-path:url(#clip-path);}.cls-3{fill:#ff2500;}.cls-4{fill:#3fe18f;}.cls-5,.cls-7{fill:#0460fa;}.cls-6{fill:#ffbb23;}.cls-7{stroke:#0460fa;}</style><clipPath id="clip-path" transform="translate(-3.14 -3.83)"><rect id="SVGID" class="cls-1" x="2.77" y="2.88" width="93.2" height="89.82" transform="translate(-2.95 3.25) rotate(-3.66)"/></clipPath></defs><g id="Layer_2" data-name="Layer 2"><g id="Layer_1-2" data-name="Layer 1"><g id="Layer_2-2" data-name="Layer 2"><g id="Layer_1-2-2" data-name="Layer 1-2"><g class="cls-2"><path class="cls-3" d="M80.35,78.48c.37.07.78.68.83,1.51s-.18,1.48-.63,1.6A403.5,403.5,0,0,1,6.17,86.38h-.1c-.36,0-.77-.69-.83-1.51s.18-1.49.64-1.52a413.38,413.38,0,0,1,74.38-4.87Z" transform="translate(-3.14 -3.83)"/><path class="cls-4" d="M76.75,66.86A3.84,3.84,0,0,1,75.61,65c-1-8.12-1.92-16.33-2.94-24.36-.43-3.92-.87-7.85-1.22-11.78l-.27-2.87c0-.1-.11-.19-.2-.27h-.1l-1,.06L67,25.84,64.13,26c-.09,0-.09,0-.18.11a33,33,0,0,0,.18,4.21l.61,12.37c.3,7.61.61,15.22.72,22.84,2.87,0,5.82.18,9.05.25h.18A5.33,5.33,0,0,1,76.75,66.86ZM77,28.33a91.18,91.18,0,0,1,1,13c.18,8.61,0,25.19,0,25.19v.18c0,.55-.52.58-1.11.07.59.51.62,1,0,1.11-4.18.73-8.84,1.39-13.4,1.91a2,2,0,0,1-2.31-1.6,1,1,0,0,1,0-.24v-.18S59.16,51.25,58.74,43L58,30.57l-.2-3.11a2.67,2.67,0,0,1-.49-2,7.08,7.08,0,0,1,1-2.87,7.78,7.78,0,0,1,4.84-3.44l1,0L66.31,19l3.13-.2.73-.05,1.3.29a5.28,5.28,0,0,1,2.74,1.07A4.77,4.77,0,0,1,76.64,25l.22,3.39Z" transform="translate(-3.14 -3.83)"/><path class="cls-4" d="M75.62,64.91a4.2,4.2,0,0,0,1.14,1.92,4,4,0,0,0-2-1h-.19c-3.23-.16-6.09-.25-9-.25-.21-7.66-.42-15.24-.73-22.85L64.2,30.33A33,33,0,0,1,64,26.12c0-.1.08-.11.18-.11l2.8-.17,2.94-.19,1-.06H71c.09.09.19.17.2.27l.27,2.87c.35,3.93.69,7.87,1.22,11.78Q74,52.75,75.62,64.91Z" transform="translate(-3.14 -3.83)"/><path class="cls-5" d="M49.15,12.64,49.42,17l.28,17.23C50,45.75,50.39,68,50.39,68v.19c0,.73-.5.86-1.08.35.58.51.43,1-.3,1.12-4.2.63-8.77,1.29-13.25,1.67a2,2,0,0,1-2.14-1.78h0v-.09L30.75,36.13,29.68,19.59l-1.25-8.38v-.73a5.35,5.35,0,0,0,.29-1,6.45,6.45,0,0,1,3.35-4.71A7.23,7.23,0,0,1,34,4.06a1.18,1.18,0,0,1,1,.21L37.5,4.1l4.18-.27s5.22,1,6.39,3.55a19.22,19.22,0,0,0,.86,1.91v.46l.06.82Zm-.33,56.1a4.56,4.56,0,0,1-1.17-2.4L44.11,33.19,42.7,17l-.44-4-.14-2v-.92c0-.09-.2-.18-.29-.17l-3.76.24c-3.57.33-2.48.07-2.72.63l.49,8.38.24,16.71c.68,10.53,1.08,21.06,1.28,31.59,3,0,9.24.32,9.24.32h-.1A4.34,4.34,0,0,1,48.82,68.74Z" transform="translate(-3.14 -3.83)"/><path class="cls-5" d="M47.61,66.34a4.9,4.9,0,0,0,1.21,2.4,3.93,3.93,0,0,0-2.18-1h.09s-6.28-.33-9.23-.32c-.4-10.53-.8-21.06-1.38-31.59l-.37-16.73-.53-8.34c.24-.56-.85-.31,2.72-.63l3.76-.24a.51.51,0,0,1,.28.16v.1L42,11l.14,2,.44,4L44.1,33.22Z" transform="translate(-3.14 -3.83)"/><path class="cls-6" d="M21.06,70.24l.2.17C21.25,70.32,21.17,70.33,21.06,70.24Zm0,0a5.37,5.37,0,0,1-1-1.49c-.83-5.65-1.8-10.92-2.5-16L17,48.9,16.81,47v-.82c0-.1,0-.1-.1-.18s-.3-.26-.39-.16l-3.74.43-2.05.12-1,.07H9.41a.17.17,0,0,0-.17.19h0l.42,8c.2,4.67.34,9.57.36,14.36,3,.09,6,.34,9.34.5h.08A3.41,3.41,0,0,1,21.06,70.24Zm.84.14a1,1,0,0,1,.41.7c0,.09-.08.19-.25.29-4.19.73-9.11,1.69-14,2.28a2.37,2.37,0,0,1-2.62-2v-.18c-.71-5.38-1.24-10.86-1.68-16.27L3.36,51l-.13-2-.07-1a9.26,9.26,0,0,1,0-1.29,6.92,6.92,0,0,1,6.5-6.49l1-.06,1.65-.11,4.22-.28a6.42,6.42,0,0,1,6,4.13,7,7,0,0,1,.39,1.81L23,47l.13,2.2V53.6c0,5.88-.21,16.83-.21,16.83v.1C23,70.83,22.48,70.83,21.9,70.38Z" transform="translate(-3.14 -3.83)"/><path class="cls-6" d="M21.26,70.41l-.2-.17C21.17,70.33,21.25,70.32,21.26,70.41Z" transform="translate(-3.14 -3.83)"/><path class="cls-6" d="M20.05,68.65a3.76,3.76,0,0,0,1,1.5,5,5,0,0,0-1.53-.82h-.09C16,69.28,13,69,10,68.93c0-4.78-.16-9.65-.37-14.41l-.42-8a.21.21,0,0,1,.17-.19h.1l1-.07,2-.13,3.73-.42c.18,0,.37.07.37.15a.29.29,0,0,0,.1.18l.06.83L17,48.8l.53,3.83C18.24,57.73,19.22,63,20.05,68.65Z" transform="translate(-3.14 -3.83)"/><path class="cls-7" d="M93,92.64l.23.42h0l.13-.08.41-.28a4.47,4.47,0,0,0,.45-.42,1.39,1.39,0,0,0,.32-.64h0l.24-2.24A19.4,19.4,0,0,0,95.09,87h0A6.56,6.56,0,0,0,93,82a2.29,2.29,0,0,0-1.06-.57,2,2,0,0,0-.35,0,2.28,2.28,0,0,0-.17-.3,2.9,2.9,0,0,0-.77-.71l-.13-.09-3.58-3.76.5-1.92a12.43,12.43,0,0,0,4.71-6h0a15.44,15.44,0,0,0,.54-1.91l.5-1.14.14.15.13-.74.08-.17v-.06h0l.07-.37v-.68a5.72,5.72,0,0,0,0-1.17h0A9.78,9.78,0,0,0,91.89,58h0a12,12,0,0,0-16.2-3h0a9.33,9.33,0,0,0-3.28,3.55h0l-.24.58h0c-.08.2-.16.39-.24.55v.05l-.2.61v.07l-.06.36V61l-.31,1.8v1.12h0V65h0a13.65,13.65,0,0,0,1.18,4.78c.3.77.61,1.45.84,1.92.11.25.21.44.28.57v.08l-.4,1.36-5.79,2.07-.26.06a8.83,8.83,0,0,0-1.32.34,8.71,8.71,0,0,0-1.68.75h0a8,8,0,0,0-2.46,2.74,6.23,6.23,0,0,0-.72,1.8h-.26l-.46,2.61h0a2.12,2.12,0,0,0,1.27,4h.11c6.5,1,14.3,2.27,20.48,3.29l7.65,1.26,2.24.36.6.11h.22Zm0,0,.23.42-.14.08H92.9Zm-3.6-29.31v.33l-.07.39h0v.17l-.14.8-.12.73a11.37,11.37,0,0,1-.39,1.63h0a10.47,10.47,0,0,1-4,5.27,1.56,1.56,0,0,0-.6,1h0l-.55,3.63h0a1.37,1.37,0,0,0,.7,1.13l5,4.11h0a2.25,2.25,0,0,0,1.21.35h.19v.11a2.86,2.86,0,0,0,.65,1h0l.12.09a4.05,4.05,0,0,1,1.2,3.11h0a5.34,5.34,0,0,1-.13.88.58.58,0,0,1-.07.33c-.06.12,0,.21-.06.32h-.11l-.08.47-.14.78L84.68,88.4c-6.79-1.3-11.58-2.26-20.29-3.91l.12-.65.81-2h0v-.06a3.25,3.25,0,0,1,1.09-1.12,4.12,4.12,0,0,1,.66-.34,4.54,4.54,0,0,0,.51-.09h0a3.4,3.4,0,0,1,.46-.09h.11l6.92-2.31a2.25,2.25,0,0,0,1.71-1.72l.65-3.7A2,2,0,0,0,77,70.7a9.48,9.48,0,0,1-1.78-5.44,8,8,0,0,1,.17-1.46l.35-2,.1-.54V61l.06-.27a.88.88,0,0,1,0-.15h0a5.23,5.23,0,0,1,1.71-1.91,7.59,7.59,0,0,1,5.56-1.21h0a7.69,7.69,0,0,1,4.91,2.88,8.22,8.22,0,0,1,1,2.53h0a1.61,1.61,0,0,1,.06.44v.12Z" transform="translate(-3.14 -3.83)"/><path class="cls-7" d="M84.7,76.74h0l.49-3.27a.57.57,0,0,1,.2-.37,11.72,11.72,0,0,0,4.33-5.74,11.54,11.54,0,0,0,.41-1.76h0l.24-1.36.42-.35-.29-.41v-.54h0a.74.74,0,0,1,0-.21h0a1.21,1.21,0,0,0,0-.38,5.41,5.41,0,0,0-1.2-2.93,9.08,9.08,0,0,0-5.54-3.25h0a9.43,9.43,0,0,0-6.33,1.26,5.35,5.35,0,0,0-2,2.28v.13a2,2,0,0,1-.08.22h0a1.66,1.66,0,0,0-.11.38v.27l-.1.54-.44,2h0a9.69,9.69,0,0,0-.19,1.61h0a10,10,0,0,0,2,6,1.16,1.16,0,0,1,.26,1L76,75.52a1.12,1.12,0,0,1-1,1h0l-6.89,2.3a4.63,4.63,0,0,0-1.1.2H67a5.69,5.69,0,0,0-1,.47A4.66,4.66,0,0,0,64.64,81v.15h0l-.82,2h0v.13l-.2,1.18-.09.47L64,85c9,1.66,13.83,2.63,20.73,4l7.86,1.58.48.1.08-.49.18-1a3.66,3.66,0,0,1,.14-.72l.09-.37a6.39,6.39,0,0,0,0-1.07,8.59,8.59,0,0,0-1.07-4v-.09L92.44,83l-.15-.1a1.84,1.84,0,0,1-.41-.55.44.44,0,0,1,0-.32l-.95-.38v0h-.19a1.29,1.29,0,0,1-.71-.19l-5-4.13H85A.44.44,0,0,1,84.7,76.74Z" transform="translate(-3.14 -3.83)"/></g></g></g></g></g></svg>