<svg xmlns="http://www.w3.org/2000/svg" xmlns:xlink="http://www.w3.org/1999/xlink" viewBox="0 0 99.18 87.54"><defs><style>.cls-1{fill:none;}.cls-2{clip-path:url(#clip-path);}.cls-3{fill:#3fe18f;}.cls-4{fill:#ff2500;}.cls-5{fill:#1934fe;}</style><clipPath id="clip-path" transform="translate(-2.17 -14.34)"><rect id="SVGID" class="cls-1" x="4.77" y="13.93" width="101.61" height="91.19" transform="translate(-14.63 100.79) rotate(-77.41)"/></clipPath></defs><g id="Layer_2" data-name="Layer 2"><g id="Layer_1-2" data-name="Layer 1"><g id="Layer_2-2" data-name="Layer 2"><g id="Layer_1-2-2" data-name="Layer 1-2"><g class="cls-2"><path class="cls-3" d="M85,28.43c-12.9-3-20.64,1.53-23.25,13.21-2.81,11.92-5.31,23.77-8,35.73C50.38,91.73,41.07,98.21,26.44,96c-2.12-.33-3.29,0-4.66,1.66-3.51,4.35-8.35,5.42-13.39,3a11.14,11.14,0,0,1-6-12.05,10.84,10.84,0,0,1,9.42-8.92c5.33-.81,9.62,1.73,11.87,7.64.8,2.2,2.13,2.62,3.86,3.15,9.64,2.3,17.8-2.88,20.19-13.17,2.73-11.34,5.71-22.63,7.56-34.09,2.8-16.34,14-24.12,29.82-20.87,0-.27.32-.78.21-.95-.8-2.2-4.11-4.62-.54-6.53,3.27-1.85,4.27,2,5.55,4,6.69,10.33,6.92,8.53-3.38,15.07a24.18,24.18,0,0,1-2.37,1.49c-1.46.81-3.1,1.73-4.4-.13-1.54-2.06-.25-3.33,1.38-4.53A28.93,28.93,0,0,0,85,28.43Z" transform="translate(-2.17 -14.34)"/><path class="cls-4" d="M101.14,64.71a11.08,11.08,0,1,1-8.5-13.18l.28.07A11.3,11.3,0,0,1,101.14,64.71Z" transform="translate(-2.17 -14.34)"/><path class="cls-5" d="M25.15,36.46a11.07,11.07,0,1,1-13.07,8.63l.06-.26A11.13,11.13,0,0,1,25.15,36.46Z" transform="translate(-2.17 -14.34)"/></g></g></g></g></g></svg>