<svg xmlns="http://www.w3.org/2000/svg" xmlns:xlink="http://www.w3.org/1999/xlink" viewBox="0 0 78.76 87.61"><defs><style>.cls-1{fill:none;}.cls-2{clip-path:url(#clip-path);}.cls-3{fill:#3fe18f;}.cls-4{fill:#0460fa;}</style><clipPath id="clip-path" transform="translate(-3.81 -0.28)"><rect id="SVGID" class="cls-1" x="2.68" y="4.18" width="81.43" height="79.85" transform="translate(-4.41 83.4) rotate(-84.89)"/></clipPath></defs><g id="Layer_2" data-name="Layer 2"><g id="Layer_1-2" data-name="Layer 1"><g id="Layer_2-2" data-name="Layer 2"><g id="Layer_1-2-2" data-name="Layer 1-2"><g class="cls-2"><path class="cls-3" d="M82.57,51.34c-.89,11.77-2,23.54-2.94,35.14-.12,1.24-2.5,2-3.55.81-3-3.4-5.64-7.82-9.23-10.77l-.46-.42a15,15,0,0,0-1.66,0c-2.63-.12-5.25-.47-7.92-.72L35.68,73.52c-2.3-.21-6.29-.07-9.26-.71a2.67,2.67,0,0,1-3.16-1.65c-.57-8.46,1-16.93,1.43-25.3.09-1,1.31-1.74,2.63-1.62l52.91,5.1A2.47,2.47,0,0,1,82.57,51.34ZM75.7,81.63c.7-9.59,1.22-19.15,2-28.74-16-1.55-32-2.94-48-4.54-.41,7.49-.25,15.42-2.11,22.74,3.74.83,11.25.63,14.21.89,6.8.49,13.54,1.09,20.29,1.57,2.64.11,4.79.06,6.86,1.24,2.59,1.35,4.84,4,6.74,6.84Z" transform="translate(-3.81 -0.28)"/><path class="cls-3" d="M77.59,52.89c-.7,9.58-1.22,19.15-2,28.74-1.9-2.79-4.15-5.49-6.72-6.86-2-1.19-4.16-1.1-6.83-1.19C55.28,73.1,48.54,72.49,41.78,72c-3-.27-10.47-.06-14.21-.89,1.86-7.35,1.7-15.28,2-22.77C45.62,49.91,61.61,51.34,77.59,52.89Z" transform="translate(-3.81 -0.28)"/><path class="cls-4" d="M67.81,41.78c-.07.83-1,1.24-2,1.28h-.32c-12.66-.56-25.3-2-37.89-3.4-2.1-.18-4.3-.51-6.4-.69l-.7-.06C15.72,41,11.64,44.6,7.33,47.26c-1.31.83-3.64-.08-3.52-1.4A426,426,0,0,0,7.22,1.72C7.3.83,8.39.19,9.63.29L66.71,5.78c1.39.13,2.35.92,2.26,2C68.81,19.11,68.16,30.49,67.81,41.78Zm-4.19-1.7c.22-10.47.11-20.84.34-31.18C46.52,7.09,29,5.44,11.57,3.63c-.45,12.86-1.42,25.51-3.1,38.26,3.19-2.26,6.35-4.72,9.81-5.75,2-.65,4.52-.09,6.77.24C37.84,37.77,50.79,39.38,63.62,40.08Z" transform="translate(-3.81 -0.28)"/><path class="cls-4" d="M64,8.9c-.23,10.34-.12,20.71-.34,31.18C50.74,39.42,37.8,37.76,25,36.37c-2.25-.33-4.81-.92-6.77-.23-3.4,1-6.61,3.48-9.75,5.74,1.68-12.75,2.64-25.39,3.09-38.26C29,5.44,46.52,7.09,64,8.9Z" transform="translate(-3.81 -0.28)"/></g></g></g></g></g></svg>