<svg xmlns="http://www.w3.org/2000/svg" xmlns:xlink="http://www.w3.org/1999/xlink" viewBox="0 0 80.43 88.06"><defs><style>.cls-1{fill:none;}.cls-2{clip-path:url(#clip-path);}.cls-3{fill:#ffbb23;}.cls-4{fill:#0460fa;}.cls-5{fill:#ff2500;stroke:#ff2500;stroke-linecap:round;stroke-linejoin:round;stroke-width:3px;}</style><clipPath id="clip-path" transform="translate(-0.89 -1.87)"><rect id="SVGID" class="cls-1" x="-1.61" y="6.46" width="86.12" height="77.78" transform="translate(-6.35 83.96) rotate(-86.5)"/></clipPath></defs><g id="Layer_2" data-name="Layer 2"><g id="Layer_1-2" data-name="Layer 1"><g id="Layer_2-2" data-name="Layer 2"><g id="Layer_1-2-2" data-name="Layer 1-2"><g class="cls-2"><path class="cls-3" d="M2.43,81.77c-2.78-5.45-1-11.29-.87-16.84,0-4.21.24-8.25.49-12.46.57-7.14,1.15-14.28,1.72-21.56C5.92,29,8.47,29.44,11,29.59l63,3.83c2.42.15,5.13,0,7,2.19-.9,14.75-1.48,29.34-2.56,44-.39,6.47-5.11,10.54-11.5,10.27-18.61-1-37.19-2.27-55.8-3.41C7.29,86.4,4.7,84.32,2.43,81.77Z" transform="translate(-0.89 -1.87)"/><path class="cls-4" d="M80.86,35.78,3.77,31.07C3.42,14.65,6.05,9.26,25.1,11.78A2.14,2.14,0,0,1,26,13.05c.47,1.25.36,3.14,2.11,3.24s1.86-1.77,2.47-3a8.41,8.41,0,0,1,1.07-1.16L55.2,13.62a2.12,2.12,0,0,1,.88,1.27c.47,1.25.35,3.14,2.1,3.24s1.86-1.78,2.49-3a7,7,0,0,1,1-1.16c2.88.17,5.66.21,8.49.52,7.67.6,11.5,5,11.13,12.73C81.34,30.12,81,33,80.86,35.78Z" transform="translate(-0.89 -1.87)"/><path class="cls-5" d="M61.9,14a24.86,24.86,0,0,1-.32,3.1c-.4,2-1.55,3.15-3.57,2.87-1.74-.24-2.6-1.51-2.77-3.28a24.88,24.88,0,0,1,.06-3.11c.1-1.62.19-3.24.43-4.85.14-2.3,1.18-3.83,3.73-3.56,2.29.27,2.87,1.91,2.74,4C62.09,10.93,62,12.46,61.9,14Z" transform="translate(-0.89 -1.87)"/><path class="cls-5" d="M31.84,12.19a21.84,21.84,0,0,1-.32,3.14c-.39,2-1.54,3.17-3.57,2.88-1.74-.25-2.6-1.51-2.76-3.29a24.8,24.8,0,0,1,0-3.11c.1-1.62.19-3.24.43-4.85.14-2.29,1.18-3.83,3.73-3.56,2.29.27,2.88,1.91,2.74,4A30.11,30.11,0,0,0,31.84,12.19Z" transform="translate(-0.89 -1.87)"/><path class="cls-5" d="M63.89,67.92c-.45,2.68-1.92,4.36-4.59,4.2a4.2,4.2,0,1,1,.28-8.39h.23C62.37,63.9,63.62,65.6,63.89,67.92Z" transform="translate(-0.89 -1.87)"/><path class="cls-5" d="M26.23,48.69c-.57,2.54-2.15,4.2-4.84,3.91a3.92,3.92,0,0,1-3.68-4.13l0-.3a3.92,3.92,0,0,1,3.85-4,4.17,4.17,0,0,1,.86.08C24.92,44.41,26.11,46.11,26.23,48.69Z" transform="translate(-0.89 -1.87)"/><path class="cls-5" d="M40.8,53.78c-2.27-.54-3.83-2-3.66-4.42a3.92,3.92,0,0,1,3.85-4,4.11,4.11,0,0,1,.86.08,3.82,3.82,0,0,1,3.63,4.79C45,52.7,43.24,53.8,40.8,53.78Z" transform="translate(-0.89 -1.87)"/><path class="cls-5" d="M64.91,51.05c-.55,2.41-1.86,4-4.29,3.84-2.69-.17-4.34-1.92-4-4.58s2.15-4.21,4.8-3.78A4.16,4.16,0,0,1,64.91,51.05Z" transform="translate(-0.89 -1.87)"/><path class="cls-5" d="M40.25,62.42c2.67.43,4.2,1.91,4,4.58a3.92,3.92,0,0,1-3.93,3.92H40c-2.71,0-4.23-1.76-4.2-4.46C36.25,63.93,38,62.81,40.25,62.42Z" transform="translate(-0.89 -1.87)"/></g></g></g></g></g></svg>