<svg xmlns="http://www.w3.org/2000/svg" xmlns:xlink="http://www.w3.org/1999/xlink" viewBox="0 0 91.97 87.84"><defs><style>.cls-1{fill:none;}.cls-2{clip-path:url(#clip-path);}.cls-3{fill:#0460fa;}.cls-4{fill:#ff2500;}.cls-5{fill:#ffbb23;}</style><clipPath id="clip-path" transform="translate(-0.48 -0.82)"><rect id="SVGID" class="cls-1" x="2.18" y="-0.97" width="88.12" height="91.3" transform="translate(0.94 90.31) rotate(-89.22)"/></clipPath></defs><g id="Layer_2" data-name="Layer 2"><g id="Layer_1-2" data-name="Layer 1"><g id="Layer_2-2" data-name="Layer 2"><g id="Layer_1-2-2" data-name="Layer 1-2"><g class="cls-2"><path class="cls-3" d="M1.27,19.42a51.5,51.5,0,0,0,1.33,7,3.71,3.71,0,0,0,1.65.24,3.69,3.69,0,0,0,1.65-.2A49.5,49.5,0,0,0,7.44,19.4c.13-1.22.37-2.42.39-3.51,0-.88.1-.44.11-.66l.11-.11.12-.1c.1,0-.23-.12.66-.11l3.5-.28a52.48,52.48,0,0,0,7.16-1.33,3.66,3.66,0,0,0,.21-1.61A3.44,3.44,0,0,0,19.5,10,50.89,50.89,0,0,0,12.39,8.5L8.88,8.12A6.26,6.26,0,0,0,6,8.41a6.87,6.87,0,0,0-4.68,4.66A5.79,5.79,0,0,0,1,15.8C1.07,17,1.17,18.22,1.27,19.42Z" transform="translate(-0.48 -0.82)"/><path class="cls-3" d="M.79,78.79a7,7,0,0,0,7.44,4.94l3.51-.29a54.21,54.21,0,0,0,7.15-1.33,6.09,6.09,0,0,0,0-3.28,50.58,50.58,0,0,0-7.11-1.54c-1.2-.12-2.41-.36-3.51-.37-.76.1-.43,0-.54,0l-.12-.1-.1-.12c0-.11-.11.22-.1-.66A34.75,34.75,0,0,0,7,72.52,52.21,52.21,0,0,0,5.8,65.38a3.67,3.67,0,0,0-1.64-.25,3.7,3.7,0,0,0-1.65.19A50.55,50.55,0,0,0,1,72.43c-.13,1.21-.24,2.41-.37,3.5A5,5,0,0,0,.79,78.79Z" transform="translate(-0.48 -0.82)"/><path class="cls-3" d="M91.18,73.55a54.21,54.21,0,0,0-1.33-7.15,3.54,3.54,0,0,0-1.61-.25,3.44,3.44,0,0,0-1.65.2,54.06,54.06,0,0,0-1.54,7.12c-.11,1.2-.36,2.4-.37,3.51,0,.87-.12.43-.12.64l-.11.12-.11.11c-.11,0,.21.1-.66.09l-3.52.29A54.21,54.21,0,0,0,73,79.56a4.14,4.14,0,0,0-.24,1.64A3.66,3.66,0,0,0,73,82.84a51,51,0,0,0,7.12,1.53l3.51.38a6.18,6.18,0,0,0,2.86-.29,7,7,0,0,0,2.85-1.72,6.87,6.87,0,0,0,1.79-2.83,8.09,8.09,0,0,0,.34-2.85A19.68,19.68,0,0,0,91.18,73.55Z" transform="translate(-0.48 -0.82)"/><path class="cls-3" d="M90.27,11.2a6.83,6.83,0,0,0-2.83-1.8A8.05,8.05,0,0,0,84.6,9l-3.52.29a52.57,52.57,0,0,0-7.15,1.31,3.37,3.37,0,0,0-.24,1.63,3.43,3.43,0,0,0,.2,1.65A50.86,50.86,0,0,0,81,15.44c1.2.13,2.4.36,3.5.37.88,0,.45.12.66.12l.11.12.11.1c0,.12.11-.21.1.66.09,1.21.19,2.43.28,3.52a54.67,54.67,0,0,0,1.33,7.16,6,6,0,0,0,3.41,0A54,54,0,0,0,92,20.37l.37-3.5A6.16,6.16,0,0,0,92.1,14,11.61,11.61,0,0,0,90.27,11.2Z" transform="translate(-0.48 -0.82)"/><path class="cls-4" d="M76.55,43.93c0-.43-.76-.88-1.64-.89s-1.65.3-1.65.74v.11A27,27,0,0,1,63.92,61a26.36,26.36,0,0,1-35.09-.59A27.37,27.37,0,0,1,20,42.94c-.1-.43-.87-.77-1.74-.78s-1.65.3-1.66.85v.1a29.45,29.45,0,0,0,7.93,21.74,30.09,30.09,0,0,0,18.86,9.48,21.07,21.07,0,0,0,.9,14.17,4.19,4.19,0,0,0,1.65.13,7.58,7.58,0,0,0,1.65-.09,20.93,20.93,0,0,0,1.28-14.13,30.37,30.37,0,0,0,19.22-9A28.89,28.89,0,0,0,76.55,43.93Z" transform="translate(-0.48 -0.82)"/><path class="cls-5" d="M46.34,54.21v.23A1.41,1.41,0,0,1,45,55.73,13.42,13.42,0,0,1,32.65,44.22c-.2-1.43-.19-2.75-.28-4.18l-.17-3.85-.11-7.67L32,20.83c.14-2.64-.37-4.84.33-8.5A14.89,14.89,0,0,1,43.65,1.12,15.11,15.11,0,0,1,61.39,12.67a16.2,16.2,0,0,1,.27,4.61l-.16,3.84-.31,7.67-.33,7.8-.17,3.8c-.13,1.32,0,2.42-.28,4.17A13.46,13.46,0,0,1,56,52.51a12.4,12.4,0,0,1-8.18,3.33h-.21V56a1.45,1.45,0,0,1-1.3-1.45Zm0,0c0-.88.46-1.63,1-1.63a9.57,9.57,0,0,0,8-8.56c.12-.87-.09-2.2-.06-3.51l0-3.89-.11-7.79-.12-7.69a59,59,0,0,0-.23-6.91,8.09,8.09,0,0,0-15.69-.33c-.46,1.42-.28,4.39-.54,6.91l-.32,7.68-.78,15.09a10.14,10.14,0,0,0,7.66,9.1h.11C45.92,52.51,46.35,53.29,46.34,54.21Z" transform="translate(-0.48 -0.82)"/><path class="cls-5" d="M55.28,40.39c0,1.32.08,2.64.07,3.52a9.58,9.58,0,0,1-8,8.51,1.66,1.66,0,0,0-1,1.63c0-.88-.42-1.65-1-1.44h-.12a10.28,10.28,0,0,1-7.67-9.1l.76-15.14.33-7.68c.14-2.53.07-5.48.53-6.91a8.08,8.08,0,0,1,15.68.32c.43,1.44.16,4.51.24,6.92l.17,7.68.12,7.79Z" transform="translate(-0.48 -0.82)"/></g></g></g></g></g></svg>