<svg xmlns="http://www.w3.org/2000/svg" xmlns:xlink="http://www.w3.org/1999/xlink" viewBox="0 0 68.05 87.58"><defs><style>.cls-1{fill:none;}.cls-2{clip-path:url(#clip-path);}.cls-3{fill:#0460fa;}.cls-4{fill:#ffbb23;}</style><clipPath id="clip-path" transform="translate(0.13 -0.11)"><rect id="SVGID" class="cls-1" width="67.91" height="87.96"/></clipPath></defs><g id="Layer_2" data-name="Layer 2"><g id="Layer_1-2" data-name="Layer 1"><g id="Layer_2-2" data-name="Layer 2"><g id="Layer_1-2-2" data-name="Layer 1-2"><g class="cls-2"><path class="cls-3" d="M67.91,76.75a11,11,0,1,1-22-.13A11.3,11.3,0,0,1,56.71,65.94,11.1,11.1,0,0,1,67.91,76.75Z" transform="translate(0.13 -0.11)"/><path class="cls-3" d="M67.91,11.08c0,5.54-5.93,11.07-11.47,10.81S45.63,16.22,45.63,11,51.56-.26,57.1.13,67.91,5.67,67.91,11.08Z" transform="translate(0.13 -0.11)"/><path class="cls-3" d="M11.08,33.63A11.23,11.23,0,0,1,22.15,44.71,11.37,11.37,0,0,1,10.68,55.65,11.56,11.56,0,0,1-.13,44.57,11.23,11.23,0,0,1,11.08,33.63Z" transform="translate(0.13 -0.11)"/><path class="cls-4" d="M15.69,7.78H26.11c3.17,0,5,1.58,5,4.75,0,2.77-2,4.22-4.75,4.22H4.88C2.11,16.75.13,15.17.13,12.4c0-3.17,2.11-4.62,5.14-4.75C8.7,7.65,12.26,7.78,15.69,7.78Z" transform="translate(0.13 -0.11)"/><path class="cls-4" d="M47.08,40H57.5c3.16,0,5,1.58,5,4.75-.13,2.76-2,4.22-4.75,4.22H36.27c-2.77,0-4.75-1.59-4.75-4.36,0-3,2.11-4.48,5-4.48H47.08Z" transform="translate(0.13 -0.11)"/><path class="cls-4" d="M15.56,82.68H5c-3.16,0-5-1.58-5-4.74.13-2.64,2-4.09,4.75-4.09H26.37c2.77,0,4.75,1.58,4.75,4.35,0,3-2.11,4.48-5,4.48Z" transform="translate(0.13 -0.11)"/></g></g></g></g></g></svg>