<svg xmlns="http://www.w3.org/2000/svg" xmlns:xlink="http://www.w3.org/1999/xlink" viewBox="0 0 1291.1 426.42"><defs><style>.cls-1{fill:none;}.cls-2{fill:#fffce3;}.cls-3{clip-path:url(#clip-path);}.cls-4{clip-path:url(#clip-path-2);}.cls-5{fill:#aac1e2;}.cls-6{fill:#7095ba;}.cls-7{clip-path:url(#clip-path-4);}.cls-8{clip-path:url(#clip-path-5);}.cls-9{fill:red;}</style><clipPath id="clip-path" transform="translate(463.73 151.01)"><rect class="cls-1" x="2.87" width="238.32" height="238.32" rx="57.35" transform="translate(244.05 238.32) rotate(180)"/></clipPath><clipPath id="clip-path-2" transform="translate(463.73 151.01)"><rect class="cls-1" x="1.56" y="1.2" width="238.32" height="238.32" rx="57.35" transform="translate(241.44 240.71) rotate(-180)"/></clipPath><clipPath id="clip-path-4" transform="translate(463.73 151.01)"><rect class="cls-1" y="1.2" width="238.32" height="238.32" rx="57.35" transform="translate(238.32 240.71) rotate(180)"/></clipPath><clipPath id="clip-path-5" transform="translate(463.73 151.01)"><rect class="cls-1" x="1.31" width="238.32" height="238.32" rx="57.35" transform="translate(240.93 238.32) rotate(180)"/></clipPath></defs><g id="Layer_2" data-name="Layer 2"><g id="Layer_1-2" data-name="Layer 1"><rect class="cls-2" x="1.56" y="1.2" width="238.32" height="238.32" rx="57.35" transform="translate(705.17 391.73) rotate(-180)"/><g class="cls-3"><rect class="cls-2" x="-417.79" y="-138.56" width="198.98" height="262.83" rx="46.85" transform="translate(-84.7 363.89) rotate(135)"/></g><g class="cls-4"><g class="cls-3"><rect class="cls-2" x="-417.79" y="-138.56" width="198.98" height="262.83" rx="46.85" transform="translate(-84.7 363.89) rotate(135)"/></g></g><rect class="cls-5" x="567.32" y="333.78" width="14.29" height="56.75"/><rect class="cls-6" x="580.32" y="333.78" width="14.29" height="56.75"/><g class="cls-7"><g class="cls-8"><rect class="cls-2" x="-419.35" y="-138.56" width="198.98" height="262.83" rx="46.85" transform="translate(-87.36 364.99) rotate(135)"/></g><g class="cls-7"><g class="cls-8"><rect class="cls-2" x="-419.35" y="-138.56" width="198.98" height="262.83" rx="46.85" transform="translate(-87.36 364.99) rotate(135)"/></g></g><path class="cls-9" d="M144.09,184.76h.5s1.77-.11,1.86-1.3l-.11-1.78a2,2,0,0,0-1.41-1.67c.07-3.66-.25-16.13-1.2-31.85-.47-7.12-1.24-15.13-2-23.13-.22-1.58-.43-3.16-.55-4.94-.75-6.53-1.81-13-3-19.17-2.08-10.86-4.56-20.93-8.1-28.81a43.51,43.51,0,0,0-3.22-6l.15,5.25h0l2,106.34-3.66-.06-1.9-111.69-.13-12.86a28.87,28.87,0,0,0-2.52-5.42l-10.3-.1S99.29,57.07,95.24,177.42h0S92.17,177.16,92,179a5.42,5.42,0,0,0,0,2.47,3.45,3.45,0,0,0,1.9,1.67c1.09.28,24.74.25,32.85.26a1.79,1.79,0,0,0,1.3.88l1.68.08c.13,3.27,1.07,78.56,4.75,90.2a1,1,0,0,0,1.79.37C137.14,272.2,143.64,239.68,144.09,184.76Z" transform="translate(463.73 151.01)"/></g><path class="cls-2" d="M353.75,135H334.54V165.4a11.76,11.76,0,0,1-3,8.42,10.28,10.28,0,0,1-14.79,0,11.72,11.72,0,0,1-3-8.42V73.94a9.68,9.68,0,0,1,10.37-10.37h30.26q18,0,28.82,9.69t10.79,26q0,22.11-19.72,30.6l17.17,27.88q3.57,6.12,3.57,10a9.08,9.08,0,0,1-2.46,6.72q-2.48,2.46-7.06,2.46-6.63,0-11.73-8.33ZM334.54,83.63v31.62h19.72q8.83,0,13.77-4.08T373,99.44q0-7.65-4.93-11.73t-13.77-4.08Z" transform="translate(463.73 151.01)"/><path class="cls-2" d="M466.12,143H424.81q2.38,15.81,17.51,15.81a21.36,21.36,0,0,0,3.32-.25c1.07-.17,1.95-.34,2.63-.51a10.05,10.05,0,0,0,2.3-.94c.85-.45,1.44-.79,1.78-1s.91-.62,1.7-1.19,1.3-.9,1.53-1a11.22,11.22,0,0,1,6.63-2,7.89,7.89,0,0,1,6,2.47,8.74,8.74,0,0,1,2.29,6.2q0,5.79-5.44,9.86a32.15,32.15,0,0,1-11.64,5.61,49.44,49.44,0,0,1-11.82,1.53q-17.34,0-27.45-12.24T404.07,135q0-17.85,9.78-30t26.6-12.16q17,0,26.52,12.16a43.57,43.57,0,0,1,9.52,27.62A9.66,9.66,0,0,1,466.12,143Zm-41-16.32h30.6a22.06,22.06,0,0,0-5.1-11.47,14.16,14.16,0,0,0-20.4,0A22.06,22.06,0,0,0,425.15,126.64Z" transform="translate(463.73 151.01)"/><path class="cls-2" d="M542.45,168.8q-6.47,8.67-20.57,8.67a30.51,30.51,0,0,1-25.07-12.07q-9.62-12.06-9.61-30.26,0-18.36,9.52-30.34t25.33-12q13.77,0,20.06,8.16V73.26A11.38,11.38,0,0,1,545,65.1a9.86,9.86,0,0,1,14.28,0,11.38,11.38,0,0,1,2.89,8.16v92.48a11.47,11.47,0,0,1-2.89,8.08,9.85,9.85,0,0,1-13.43.93A10.76,10.76,0,0,1,542.45,168.8Zm-29.92-17.08a15.1,15.1,0,0,0,12.75,6.37A14.83,14.83,0,0,0,538,151.63q4.66-6.45,4.67-16.49T538,118.65a14.85,14.85,0,0,0-12.67-6.46,15.11,15.11,0,0,0-12.75,6.38q-4.75,6.38-4.76,16.57T512.53,151.72Z" transform="translate(463.73 151.01)"/><path class="cls-2" d="M624.56,136H605.18V165.4a11.72,11.72,0,0,1-3,8.42,10.28,10.28,0,0,1-14.79,0,11.76,11.76,0,0,1-3-8.42V73.94a9.67,9.67,0,0,1,10.37-10.37h29.75q18.53,0,29.24,9.95t10.71,26.26q0,16.32-10.71,26.27T624.56,136ZM605.18,83.63v32.64h19.38q9,0,14-4.16t5-12.16q0-8-5-12.15t-14-4.17Z" transform="translate(463.73 151.01)"/><path class="cls-2" d="M731.83,143H690.52q2.37,15.81,17.51,15.81a21.13,21.13,0,0,0,3.31-.25q1.62-.26,2.64-.51a10,10,0,0,0,2.29-.94c.85-.45,1.45-.79,1.79-1s.9-.62,1.7-1.19,1.3-.9,1.53-1a11.18,11.18,0,0,1,6.63-2,7.87,7.87,0,0,1,6,2.47,8.74,8.74,0,0,1,2.3,6.2q0,5.79-5.44,9.86a32.11,32.11,0,0,1-11.65,5.61,49.3,49.3,0,0,1-11.81,1.53q-17.34,0-27.46-12.24T669.78,135q0-17.85,9.77-30t26.61-12.16q17,0,26.52,12.16a43.63,43.63,0,0,1,9.52,27.62A9.67,9.67,0,0,1,731.83,143Zm-41-16.32h30.6a22.22,22.22,0,0,0-5.1-11.47,14.16,14.16,0,0,0-20.4,0A22.06,22.06,0,0,0,690.86,126.64Z" transform="translate(463.73 151.01)"/><path class="cls-2" d="M777.73,101.48q6.12-8.67,20.23-8.67,14.61,0,22,10t7.4,27.11v35.87a11.43,11.43,0,0,1-2.89,8.16,9.86,9.86,0,0,1-14.28,0,11.38,11.38,0,0,1-2.89-8.16V130.38q0-18.18-13.09-18.19a14.69,14.69,0,0,0-11.56,5.27q-4.59,5.28-4.59,14.62v33.66a11.43,11.43,0,0,1-2.89,8.16,9.86,9.86,0,0,1-14.28,0,11.38,11.38,0,0,1-2.89-8.16v-61.2a11.38,11.38,0,0,1,2.89-8.16A9.41,9.41,0,0,1,768,93.32a9.29,9.29,0,0,1,6.29,2.21A10.83,10.83,0,0,1,777.73,101.48Z" transform="translate(463.73 151.01)"/></g></g></svg>