<svg xmlns="http://www.w3.org/2000/svg" viewBox="0 0 992.97 899.85"><defs><style>.cls-1{fill:#ffbe26;}.cls-2{fill:#8461e1;}.cls-3{fill:#ff2500;}.cls-4{fill:#d4cffc;}.cls-5{fill:#ffe19a;}.cls-6{fill:#40e08f;}.cls-7{fill:#92bdfe;}.cls-8{fill:#ff820f;}.cls-9{fill:#a95be8;}.cls-10{fill:#fff;}.cls-11{fill:#fefdfe;}.cls-12{fill:#fe4a81;}.cls-13{fill:#fa1c4b;}.cls-14{fill:#3259f8;}.cls-15{fill:#fff7e0;}.cls-16{fill:#383c73;}</style></defs><g id="Livello_2" data-name="Livello 2"><g id="Livello_1-2" data-name="Livello 1"><path class="cls-1" d="M901.35,696.07c-23.54,21.7-152.73,53.75-217.47,97-75.75,50.62-97.75,59.19-168.82,91.14-64.24,28.88-164.88,18-202.39-34.82-23-32.43-1.52-51.94-21.76-174.09-12-72.46-24.88-52-40.45-59.95-25.53-13-54.41-24.57-90.12-46.69-36-22.27-27-65.1-23.94-100.1A110,110,0,0,0,129.87,425C113.15,380.71,73,383.45,36.3,340.16,31.51,334.52-8,286.64,1.48,237.88c8.47-43.38,52.07-68.36,74-80.52,513.71-285,746.44-95.76,746.44-95.76C1098.68,286.73,973.35,629.71,901.35,696.07Z"/><path class="cls-2" d="M568.11,679.07h0a1.22,1.22,0,0,0,.75-.05A1.29,1.29,0,0,1,568.11,679.07Z"/><path class="cls-3" d="M430.32,709.22a74.58,74.58,0,0,1-16.13-4.49c-.19-17.8-2.23-35.48-3.3-53.22-1.67-27.54-3.34-55.07-4.81-82.62a21.8,21.8,0,0,0-2.19-8.49c-.76-1.57-2-3.42-4.13-2.87-1.92.5-1.18,2.52-1.19,3.9q-.06,38.48,0,77c0,2.37.4,4.67,2.23,6.28,4.08,3.6,5.51,8.07,5.44,13.42-.17,14.33-.09,28.66-.1,43-9.51-2.65-17.81-7.79-26.33-12.53-15.6-8.67-28.21-20.81-40.21-33.73-.83-12.64-2.32-14.06-15.06-13.89-14.44.2-28.89.51-43.33.76-1.52-3.35-3.92-5-7.79-4.68-4.13.3-8.31-.08-12.45.14-3.48.17-6.57,1.24-6.91,5.52-12-1-23.91-.18-35.8.62-5.44.36-8.86,4.84-9.91,10.48-1.82,9.8-3.78,19.57-5.41,29.4-2.42,14.58-5.52,29.06-6.76,43.81-.88,10.42,4.4,15.89,14.82,15.9,21.79,0,43.59,0,65.38.09,1.53,0,4.3-1.63,4.62,1.88-2.45,3.74-4.66,7.67-7.41,11.16-2.51,3.19-1.21,5.07,1.41,6.92,8,5.63,17,8.85,26.19,11.84,4.85,1.58,9.81,2.8,14.73,4.18a17.9,17.9,0,0,1-2.8.83c-14.25,1.74-28.58,1.9-42.9,2-25.32.13-50.64.05-76,.06-18.28-3.21-26.62-18-26.25-33.9a442.35,442.35,0,0,1,21.45-125.38c.76-2.37,1.37-4.78,2-7.17.22-.5.43-1,.64-1.51a.94.94,0,0,0,.44-.76,37.39,37.39,0,0,0,5.42.76q63.36.07,126.72,0c10.34,0,19.64-7.44,21.47-16.84,2.2-11.25,4.26-22.52,6-33.85,2.22-14.61,13.36-24.28,28.24-24q0,29.19-.08,58.37c0,11.26,1.53,22.73-5.6,32.91-1.7,2.43-.52,4.74,3.22,4.58,4.15-.18,8.31-.06,12.47,0,3.2,0,4.44-.35,2.85-4.31-2.39-6-4.69-12.22-4.72-18.84-.08-21.78,0-43.57-.13-65.35a7.68,7.68,0,0,1,.08-1.06,3,3,0,0,1,.06-.42c0-.2.07-.41.11-.61l.09-.47c.1-.46.2-.91.26-1.37,0-.17,0-.34.06-.5s0-.42,0-.63a5.44,5.44,0,0,0,0-.57,3.75,3.75,0,0,0-.09-.57,2.45,2.45,0,0,0-.08-.29,4.43,4.43,0,0,0-.15-.43,3.36,3.36,0,0,0-.2-.43l9.82-.24c6.52,2.45,13.68,3.44,18.34,9.71,3.06,4.1,5.15,8.43,5.53,13.43,1.71,22.83,2.79,45.71,4.43,68.52,1.67,23,2.89,46,4.38,69C431.23,702.72,434.12,706.29,430.32,709.22Z"/><path class="cls-4" d="M467.38,789h0q.21,1,.33,2A20,20,0,0,0,467.38,789Z"/><path class="cls-5" d="M817.35,809.7c-3.67-5.54-7.51-11-11-16.6-1.55-2.49-3.47-3.13-6.2-3.19-12.13-.28-24.24-.12-36.39-.68-15.08-.71-30.23-.66-45.34-1.37a91.65,91.65,0,0,1-12.77-1.67C688,782.84,672,775,655.28,769c-19.21-6.94-38.46-13.58-59.36-13.15-24.77.51-44.55,10.49-59.21,30.43-2,2.69-2.73,2.85-4.93.11-10.87-13.51-24.65-21.17-42.49-19.39-11.06,1.11-21.84,3.76-32.51,6.91-25.72,7.59-51.9,12.32-78.82,12-8.13-.11-16.26-.55-24.37-1.06-3.95-.25-7.88-1-11.79-1.57-8.65-1.39-17.28-2.86-25.92-4.29a17.9,17.9,0,0,1-2.8.83c-14.25,1.74-28.58,1.9-42.9,2-25.32.13-50.64.05-76,.06,1.62,1.78,3.75,1,5.66,1,21.65,0,43.31,0,65,0,1.27,0,3-.62,3.73.63.91,1.51-.59,2.73-1.39,3.93-4.78,7.19-9.65,14.33-14.33,21.59-.82,1.27-2.89,2.52-1.79,4.23.81,1.28,2.79.56,4.24.56q48.48,0,96.95,0a22.8,22.8,0,0,1,7.84,1c.81-1.11,2-1,3.17-1l56.88.12,1.86-.6q.28-7.5.58-15c-12.58,1-25.14,2.16-37.73,3-35.25,2.26-70.52,1.92-105.78.24-1.28-.07-3.08.59-3.87-1.42,1.48-1.79,3.39-.82,5.07-.76,45.94,1.77,91.83,2.18,137.59-3.31a286.1,286.1,0,0,0,52.65-10.88c15-4.74,29.56-3.74,43.46,3.87,1.51.82,3.54,1.2,4.2,4.62-10.5-6.06-21-9.35-31.75-9.05-.36,0-.72,0-1.08.05a1.53,1.53,0,0,0-.37,0c-.33,0-.65,0-1,.06h0l-1.56.15c-.55.06-1.11.13-1.66.21-1.1.16-2.21.36-3.32.61-.28.05-.56.12-.84.19-.46.1-.91.21-1.37.34s-1.15.31-1.73.49l-.27.08-.7.22a54.83,54.83,0,0,0-5.14,1.94h0a20,20,0,0,1,.32,2c.06.56.11,1.13.14,1.69.29,5.35-.92,10.66-1,16,0,3.9,1.23,5.2,5.13,5.18,7.41,0,14.85-.57,22.25.32,2.1.15,3.2-1,4.29-2.71,4.27-6.78,10.7-9.61,18.54-9.61,11.45,0,22.91.08,34.37,0,8.61-.08,15.59,2.74,20.1,10.43a3.22,3.22,0,0,0,2.73,1.88c12.33-.83,24.68-.21,37-.3.56,0,1.12.55,1.68.84,2.37-1,4.87-.88,7.37-.88H807.24c2.67,0,5.33,0,8,0,1.11,0,2.57.5,3.24-.63C819.29,811.89,818.06,810.76,817.35,809.7Zm-163.1-7.79c-.22.84-.87.8-1.54.46-1.19-.6-2.38-1.2-3.57-1.77-19.53-9.33-40-13.08-61.51-10a22.69,22.69,0,0,1-3,.23c-.23,0-.46-.38-1.72-1.51a76.55,76.55,0,0,1,20.93-2.15,110.66,110.66,0,0,1,47,11.78,24.93,24.93,0,0,1,3,1.71A1.45,1.45,0,0,1,654.25,801.91ZM788.59,803c-26.32-.39-52.64-.91-79-1.23-14-.18-26-6.53-38.44-11.62a396.45,396.45,0,0,0-48.65-16.57c-22.64-6-43.15-1.37-62.31,11.33-1.46,1-2.62,2.54-5.63,2.71,2.16-3.86,5.43-5.28,8.25-7,19.19-11.61,39.55-14.86,61.42-9a411.21,411.21,0,0,1,59.61,21.48,75,75,0,0,0,30,6.47c24.49.27,49,.84,73.46,1.32,1.54,0,3.25-.4,4.74.87C791.22,803.58,789.73,803,788.59,803Z"/><path class="cls-6" d="M398.38,527.46c0,3.8,0,7.61,0,11.41l-9.82.24h0l-8.14,0c-14.88-.26-26,9.41-28.24,24-1.72,11.33-3.78,22.6-6,33.85-1.83,9.4-11.13,16.81-21.47,16.84q-63.36.18-126.72,0a37.39,37.39,0,0,1-5.42-.76c-5.95-4.5-7.32-8.35-4.47-14.84q9.12-20.71,18.7-41.22c3.72-8,6.83-16.23,11.6-23.67,1.85-2.88-1.62-2.06-2.07-3.29,5.45,1.06,7.92-3.63,11.24-6.23a41.47,41.47,0,0,1,25.31-9l17.42-.43,6.23,0c9.81.12,19.62.36,29.43.34,15.32,0,30.63-.2,45.94-.32l6.29,0c9.24.92,18.5.21,27.75.4C394.19,515,398.3,519.11,398.38,527.46Z"/><path class="cls-7" d="M339.56,654.83c-5.78,6.59-10.11,14.21-14.87,21.5-12.51,19.12-24.75,38.42-37.07,57.67-2.29,3.57-4.44,7.24-6.66,10.86-.32-3.51-3.09-1.87-4.62-1.88-21.79-.13-43.59-.07-65.38-.09-10.42,0-15.7-5.48-14.82-15.9,1.24-14.75,4.34-29.23,6.76-43.81,1.63-9.83,3.59-19.6,5.41-29.4,1.05-5.64,4.47-10.12,9.91-10.48,11.89-.8,23.85-1.65,35.8-.62q-3.09,19.1-6.19,38.19c-2.43,1.07-6-.66-7.41,2.85-4.13,10,3.61,22.24,14.49,23,12.65.89,19.87-4.28,24.58-17.63,1.79-5.09,1-6.61-4.25-8.28q3-19.56,5.93-39.13c14.44-.25,28.89-.56,43.33-.76C337.24,640.77,338.73,642.19,339.56,654.83Z"/><path class="cls-3" d="M833,818.87c0,2.56-2.84,1.58-4.47,1.59q-109.68.06-219.35.06c-2.64,0-5.34-.41-7.9.65l-18.43-.29c-2.77,0-4.36,1.32-4.59,4.1-.28,3.33-2.07,6-3.81,8.63-7.59,8.61-18,8.66-28.24,9.45-11-.1-21.92,0-32.88-.36-9.57-.27-17.48-5.29-20.5-13.63-2.88-7.94-7.23-9-14-8.27-2.14.22-4.32,0-6.49,0-6.11,0-7.43,1.08-5.7,6.93,1.46,4.93,1,9.8,1.5,14.68.32,3.27-.41,6.62.81,9.81,1,9,3.2,17.89,5.76,28-9.1-7.18-17.31-13.32-25.11-19.94-3.58-3-5.23-2.34-7.41,1.35-3.59,6.07-7.63,11.86-12.2,18.87A201.47,201.47,0,0,1,424,845.15c-.8-7.14-2.21-14.25-1.74-21.51.13-2.14-1.17-2.83-3.15-2.81q-23.82.18-47.66.31c-2.74-1-5.6-.63-8.41-.63q-58.23,0-116.47-.06c-1.93,0-5.49,1.18-5.48-1.44,0-3.12,3.68-1.68,5.65-1.68,36.65-.11,73.31-.07,110-.1,2.15,0,4.29-.3,6.44-.47q27.57.09,55.17.21c2.55,0,4.3-.48,3.72-3.58q.28-7.5.58-15a390.57,390.57,0,0,0,44-8.84c-.07,7.65-.16,15.29-.2,22.93,0,2.19-.17,4.48,3.15,4.41,7.46-.18,14.93.45,22.38-.41,1.78.37,2.12,1.58,2.36,3.25,1.76,12,8.81,18.16,21,18.22q19.74.09,39.49,0c11.4,0,18.71-6.27,20.46-17.59.31-2,.58-3.59,2.92-3.86,10.54.86,21.1.3,31.66.3,3.78.89,7.63.42,11.44.43q102.93,0,205.86,0a7.5,7.5,0,0,1,1.5,0C830.2,817.62,833.05,816.24,833,818.87Z"/><path class="cls-8" d="M414.19,704.73c-2.82-.94-6-1-8.09-3.64,0-14.33-.07-28.66.1-43,.07-5.35-1.36-9.82-5.44-13.42-1.83-1.61-2.24-3.91-2.23-6.28q0-38.49,0-77c0-1.38-.73-3.4,1.19-3.9,2.1-.55,3.37,1.3,4.13,2.87a21.8,21.8,0,0,1,2.19,8.49c1.47,27.55,3.14,55.08,4.81,82.62C412,669.25,414,686.93,414.19,704.73Z"/><path class="cls-1" d="M546.25,843.06c-11.92,4-24.28,5.5-36.67,6.87-11.89,1.32-23.83,1.05-35.76.91-1.68,0-3.76-.89-4.81,1.42-1.22-3.19-.49-6.54-.81-9.81-.48-4.88,0-9.75-1.5-14.68-1.73-5.85-.41-6.92,5.7-6.93,2.17,0,4.35.18,6.49,0,6.75-.7,11.1.33,14,8.27,3,8.34,10.93,13.36,20.5,13.63C524.33,843,535.3,843,546.25,843.06Z"/><path class="cls-1" d="M424,845.15c-.87-2.36-3-2.7-5-3.3-16.05-4.72-31.57-10.74-46-19.24-.54-.31-1.78-.21-1.47-1.47q23.83-.15,47.66-.31c2,0,3.28.67,3.15,2.81C421.77,830.9,423.18,838,424,845.15Z"/><path class="cls-8" d="M601.32,821.17a77.91,77.91,0,0,1-26.83,12.44c1.74-2.67,3.53-5.3,3.81-8.63.23-2.78,1.82-4.14,4.59-4.1Z"/><path class="cls-9" d="M418.29,817q-27.6-.16-55.17-.21l-1.9-1.56c17.75-.09,35.5-.16,53.25-.31,1.9,0,4,.76,5.68-.9l1.86-.6C422.59,816.49,420.84,817,418.29,817Z"/><path class="cls-10" d="M613,814.75l-3.2,2.07c-10.56,0-21.12.56-31.66-.3-.06-2.81-3-.83-3.85-2.31,12.33-.83,24.68-.21,37-.3C611.87,813.91,612.43,814.46,613,814.75Z"/><path class="cls-10" d="M420.15,814c-1.67,1.66-3.78.88-5.68.9-17.75.15-35.5.22-53.25.31l-1.12-.33c.81-1.11,2-1,3.17-1Z"/><path class="cls-11" d="M672.89,319.67c-.85-2.11-3.14-2.3-5.08-2.46a77.76,77.76,0,0,0-18.71,1.18c-1.62.26-3.26.35-4.89.53-13.43,3-26.9,5.77-40.28,8.93-4.6,1.09-9.19,2.23-13.77,3.39L581,333.6l-4.57,1.18-9.16,2.36c.48,1.91.19,4.23,2.77,5,15.52-5,31.24-9,47.67-9.31,1.57,0,3.64-.4,4.41,1.51.84,2.08-.81,3.46-2.21,4.6-9.49,7.78-20.49,13-31.42,18.29-4,2-8.16,3.73-12.25,5.58-20,9.12-40.39,17.07-61,24.44a7,7,0,0,1-4.84,1.8l-.15.07a26.68,26.68,0,0,1-10,3.75l-1,.31c-18.64,7.42-37.82,13.19-57,18.92-8.89,2.65-17.69,5.63-26.87,7.22a176.45,176.45,0,0,1-33.68,6.5c-2.91.28-6.94,1-8.05-2-1.19-3.22,2.66-4.93,5-6.57A156.2,156.2,0,0,1,407,401.62c0-1.5,0-3,0-4.51a5.43,5.43,0,0,0-3.33.79c-19.12,9.33-38.25,18.64-56.78,29.13-9.13,5.17-18.21,10.39-26.16,17.3-1.57,1.36-3.66,2.91-2.74,5.39s3.46,2.25,5.53,2.7a9.41,9.41,0,0,0,2.49.08,272.19,272.19,0,0,0,32.55-4.39c21.06-4,41.81-9.36,62.72-14,11-3.12,22.09-6.09,33-9.39,23.26-7,46.31-14.64,69-23.3,1.83-.7,3.59-1.82,5.7-1.55l38-15.87,11-4.57c29-14.1,58.22-27.86,84.72-46.53,2.73-2.64,5.53-5.2,8.14-7.94C672.3,323.53,673.73,321.77,672.89,319.67ZM345.19,441.5l46.3-9.19C376.3,436.62,361,440.3,345.19,441.5Zm176.27-48a6.74,6.74,0,0,1-1.34.3c-.41-1.16.65-1.16,1.12-1.43s1.12-.14,2.48-.25A25.17,25.17,0,0,1,521.46,393.49Zm3.52-1.37-.43-1.06,20.75-8.2.43,1.06Zm22.72-9.36c-.13,0-.24-.2-.36-.31.13-.1.26-.29.38-.28s.24.2.36.31C548,382.58,547.82,382.77,547.7,382.76Zm2.21-1.2c2.26-1.95,5-2.77,9.12-3.9C555.61,380.4,552.72,380.88,549.91,381.56Zm9.78-3.84c-.11,0-.2-.17-.3-.26l.34-.24.3.29C559.92,377.58,559.8,377.73,559.69,377.72ZM572.23,372c-2.94,2.86-6.75,3.7-10.54,4.6A32.69,32.69,0,0,1,572.21,372a20.25,20.25,0,0,1,8.68-3.62C578.28,370.23,575.59,371.93,572.23,372Zm9.31-4.14c3.09-2,5.36-3.29,9.17-3.74C587.53,366.1,585.29,367.47,581.54,367.86Zm10.15-4.08c-.12,0-.23-.2-.34-.31l.41-.31.31.35C592,363.61,591.81,363.79,591.69,363.78Zm29.74-14.58h0a11.84,11.84,0,0,1-1.75,1.52l-.62.41a12,12,0,0,1-1.32.73c-.34.17-.68.32-1,.46a22.25,22.25,0,0,1-3.28,1,21.84,21.84,0,0,1-9.6,4.79,24.49,24.49,0,0,1-10.45,4.06l10-4.93a24.3,24.3,0,0,1,9.58-4.48,13.49,13.49,0,0,1,8-4c.26-.44.56-.84,1-.23C622,348.59,621.63,349,621.43,349.2Zm12.41-7.06c-.45,1.05-1.48.94-2.38,1.08l-1,1c-1.77,2.1-4.2,2.81-6.73,3.37,1.32-2.61,3.63-3.49,6.25-3.83l1-1h0l.33-.38c.11-.13.22-.26.34-.38a2.8,2.8,0,0,1,.49-.43,1.57,1.57,0,0,1,.58-.25,1.65,1.65,0,0,1,.32,0,2,2,0,0,1,.6.1C633.78,341.41,633.93,341.94,633.84,342.14Zm2.22-1.24a4.92,4.92,0,0,1-.58-.76,6.57,6.57,0,0,1,.92-.82c.17.21.52.52.47.61A6.31,6.31,0,0,1,636.06,340.9Zm7.36-5.71-1,1-2,1-1,1c-.27.34-.54.8-1,.18,0-.06.35-.4.54-.62l1-1,2-1,1-1c.26-.32.5-.78.91-.19C643.94,334.64,643.59,335,643.42,335.19Z"/><path class="cls-12" d="M508.14,365.89c-6.45,4.57-13.36,8.06-21.74,7.2-2.46-.25-5.11-.51-7.89.55,1.63,2,3.41,1.12,4.91,1.33,1.19.17,2.55.15,2.67,1.65.35,4.55,3.49,8.71,1.6,13.62-1,2.51.08,3.64,3.07,3.15a59.07,59.07,0,0,1,8.43-.24c-18.64,7.42-37.82,13.19-57,18.92-8.89,2.65-17.69,5.63-26.87,7.22a7.72,7.72,0,0,1-3.09-3.74c-1.64-4.68-3.47-9.29-5.23-13.93,0-1.5,0-3,0-4.51-.53-3.18-1.06-6.37-1.58-9.55,1.25-1.44.79-3.22.64-4.78-.5-5.07-.14-8.79,6.73-8.12,2.44.23,5.2-.68,7.86-.68,2.38,0,3.85-1,4.89-3.36,3.18-7.35,8.7-11.89,16.81-13.2,4-.65,8-.07,11.93-.51,1.82-.2,3.83-.61,3.91-3,.13-3.79-2.75-5.81-5.1-8.09-1.7-1.65-2.65-.13-3.61,1-3,3.49-6.62,4.33-10.66,2-4.28-2.5-4.52-6.36-2.78-10.4,1.44-3.36-.22-4.43-3-5.28-3.88-1.2-7.88-1-11.85-1.17a81.56,81.56,0,0,1,10-12.66l1-1A63.77,63.77,0,0,1,456.87,303c3.82.78,7.08-1.52,10.3-2.63,3.75-1.29,3,.46,3,2.41,0,12.1,0,24.21,0,36.31a11,11,0,0,0,.26,3.95c1.2,3,.26,4.83-2.59,5.87-1.08.4-1.95,1-1.32,2.13s1.77.28,2.59-.13a23.11,23.11,0,0,0,2.06-1.38c7.58-4.76,12.78-12,19.1-18.1,2.34-2.24,4.48-4.6,8.4-4.58,8.81.05,12.6,5.62,15.67,12.68C517.92,347.68,515.13,361,508.14,365.89Z"/><path class="cls-8" d="M607.39,602.87c-4.51-1.69-122.29-51.29-132.5-53.79-1-.25-2.12-1.59-3.16-.48s.16,2.11.5,3.17c1.93,6.2,83.86,144.26,85.17,144.3,2.38-3,47.44-80.87,51.46-89C610.12,604.51,610,603.84,607.39,602.87Zm-30.75,15.67c-5.94,11.49-11.9,23-18.14,34.28-1.73,3.14-2.88,2.51-4.32,0-8-13.88-16-27.79-24.07-41.63-2.93-5-6.12-9.86-9.12-14.83-2-3.34-1.23-5.59,2.69-5.6,3.33,1.32,7.48,2.79,11.49,4.56,13.06,5.8,26.07,11.71,39.11,17.55C576.88,614.06,578.48,615,576.64,618.54Z"/><path class="cls-13" d="M658.24,443.66h0a2.5,2.5,0,0,0-.23-.23c-.26.07-.52.14-.77.23h0c.87,3,2.64,3.56,4.64,3.43C660.3,447,659,446.18,658.24,443.66Zm-26.1-.77c-2.64.2-5.76,0-5.86,3.82-.08,3,1.78,4.5,5.33,4.39h.23c-3.05-.12-4.63-1.59-4.56-4.39.1-3.79,3.22-3.62,5.86-3.82h.26A8.84,8.84,0,0,0,632.14,442.89Z"/><path class="cls-3" d="M703.41,458.84c-2-4.19-5.16-6.81-8.36-9.67l-1.81-.39c-4.44-1.92-9.12-2.3-13.88-2.26q-6.42.06-12.83.08a26.26,26.26,0,0,1-4.65.49c-2,.13-3.77-.39-4.64-3.43h0c.25-.09.51-.16.77-.23,0-.06-.11-.11-.17-.17a3.7,3.7,0,0,0-.42-.37A7.73,7.73,0,0,0,656,442l-.48-.25-1-.44a22.6,22.6,0,0,1-4-1.88c-8.2-5.48-16.81-6.12-25.85-1.43-12.85,6.65-17.65,18.08-19.3,31.43-1.5,12.18,2.19,22.95,9.11,32.75l.57.8h0c4.86,3.29,8.78,7.66,13.8,10.92,11.31,7.37,23.63,8.38,36.17,6.69a45.16,45.16,0,0,0,25.82-12.13c7.33-7.07,11.61-16,13.78-25.52C706.42,475.08,707.15,466.84,703.41,458.84Zm-65.29-12.46c-.19,3.2-2.73,4.77-5.51,4.72h-1c-3.55.11-5.41-1.36-5.33-4.39.1-3.79,3.22-3.62,5.86-3.82a8.84,8.84,0,0,1,1.26,0C635.91,442.75,638.28,443.64,638.12,446.38Z"/><path class="cls-14" d="M573.41,411.09c-10.2,26.18-28.52,44.49-55.57,52.6-34.16,10.24-63.89,1.37-89.28-23.18a32.37,32.37,0,0,1-2.75-3.48c4.73-2.08,8.27,2,12.51,2.51,2,.27,2.95,1.36,4.35-1.52,2.34-4.83,5.9-8.52,12.56-7.16,5.82,1.19,11.46-.55,16.78-3.24,6.49-3.29,13.13-6.27,20.35-7.57s14.49-5.32,22.22-1.59a2.47,2.47,0,0,0,2.29-.29c4.74-5.64,10.23-10.8,12.17-18.31l38-15.87,11-4.57C579.47,390.41,577.33,401,573.41,411.09Z"/><path class="cls-14" d="M576.24,362.78c-20,9.12-40.39,17.07-61,24.44-1.78.15-4.19-1.4-4.84,1.8l-.15.07a11,11,0,0,0-10,3.75l-1,.31a59.07,59.07,0,0,0-8.43.24c-3,.49-4-.64-3.07-3.15,1.89-4.91-1.25-9.07-1.6-13.62-.12-1.5-1.48-1.48-2.67-1.65-1.5-.21-3.28.69-4.91-1.33,2.78-1.06,5.43-.8,7.89-.55,8.38.86,15.29-2.63,21.74-7.2,7-4.94,9.78-18.21,6.26-26.34-3.07-7.06-6.86-12.63-15.67-12.68-3.92,0-6.06,2.34-8.4,4.58-6.32,6.07-11.52,13.34-19.1,18.1a23.11,23.11,0,0,1-2.06,1.38c-.82.41-1.88,1.36-2.59.13s.24-1.73,1.32-2.13c2.85-1,3.79-2.87,2.59-5.87a11,11,0,0,1-.26-3.95c0-12.1,0-24.21,0-36.31,0-1.95.71-3.7-3-2.41-3.22,1.11-6.48,3.41-10.3,2.63,8.08-5.07,17.29-7,26.46-7.66,33.9-2.48,61.21,9.69,80.82,38,.93,1.34,2.08,2.53,3.12,3.79h0c.48,1.91.19,4.23,2.77,5,.5,1.55,1,3.13,1.52,4.66C573.47,352,575.92,357.08,576.24,362.78Z"/><path class="cls-11" d="M305.4,329.06c-6.4-5.43-13.8-9.25-21.17-13.11Q273,335.68,261.74,355.41a11.48,11.48,0,0,1-4.17,4.8c-5,2.9-10.06,5.87-15.08,8.82q-21.42,12.59-42.86,25.16c-4.37,2.54-5.84,8.21-1.51,12.34,3.84,3.68,8.82,4.41,13.09,6.87,20.35,11.71,40.9,23.05,61.27,34.71,4.22,2.42,6.81.53,9.21-2.41,1.55-1.89,1.37-4.36,1.34-6.72-.3-21.14-.54-42.29-.89-63.44a15.93,15.93,0,0,1,2.18-8.51C291.46,354.44,298.39,341.73,305.4,329.06ZM265.08,435.12q-25.66-14.28-51.26-28.7c-1.71-1-3.5-1.92-4.18-4a5.19,5.19,0,0,1,1.24-5.52c1.29-1.33,2.64-1.49,4.47-.68,16.75,7.4,32.7,5.22,48.07-4.12a40.4,40.4,0,0,1,10.32-4.79c1.18,1.53.95,3.25,1,4.88.15,12.32.31,24.64.38,37C275.13,436.79,271.74,438.83,265.08,435.12Z"/><path class="cls-15" d="M184.26,294.7l-23.12,14.13c-6-7.18-10-15.59-14.88-23.44-13.71-21.94-27.2-44-40.75-66.08-.86-1.4-1.53-2.92-2.29-4.38l24.84-15.63c6.05,9.73,12.16,19.41,18.12,29.19q18.57,30.45,37,61C184.13,291.05,186.14,292.5,184.26,294.7Z"/><path class="cls-14" d="M458.2,353.89c-.08,2.41-2.09,2.82-3.91,3-4,.44-7.94-.14-11.93.51-8.11,1.31-13.63,5.85-16.81,13.2-1,2.39-2.51,3.36-4.89,3.36-2.66,0-5.42.91-7.86.68-6.87-.67-7.23,3-6.73,8.12.15,1.56.61,3.34-.64,4.78A99.24,99.24,0,0,1,411,350c2.2-6.47,6.1-12.45,10.24-18.06,4,.16,8,0,11.85,1.17,2.74.85,4.4,1.92,3,5.28-1.74,4-1.5,7.9,2.78,10.4,4,2.36,7.62,1.52,10.66-2,1-1.1,1.91-2.62,3.61-1C455.45,348.08,458.33,350.1,458.2,353.89Z"/><path class="cls-12" d="M529,399.86c-1.94,7.51-7.43,12.67-12.17,18.31a2.47,2.47,0,0,1-2.29.29c-7.73-3.73-14.89.27-22.22,1.59s-13.86,4.28-20.35,7.57c-5.32,2.69-11,4.43-16.78,3.24-6.66-1.36-10.22,2.33-12.56,7.16-1.4,2.88-2.35,1.79-4.35,1.52-4.24-.55-7.78-4.59-12.51-2.51l-4.52-2.93c11-3.12,22.09-6.09,33-9.39,23.26-7,46.31-14.64,69-23.3C525.17,400.71,526.93,399.59,529,399.86Z"/><path class="cls-13" d="M358.16,514.47l-6.29,0a12.68,12.68,0,0,1-1.34-2.51c-2.11-7.87-6-11-13.87-11.05q-22.49-.06-45,0a16.78,16.78,0,0,0-5.76.89c-6.14,2.18-7.72,7.37-9.44,12.63l-6.23,0c-1.26-10.74,10-21.18,21.17-21.16,15.15,0,30.29.09,45.43,0C348.3,493.25,359.53,504.33,358.16,514.47Z"/><path class="cls-13" d="M128.06,199.3l-24.84,15.63c-3.22-3.85-5.29-8-5-13.3a16.06,16.06,0,0,1,12.6-14.39c5.7-1.07,12.82,2.59,15.33,8.22C126.76,196.78,128.48,197.53,128.06,199.3Z"/><path class="cls-5" d="M188.25,312.9a75.09,75.09,0,0,0-11.84,7.17c-5-3.91-10.82-6.63-15.27-11.24l23.12-14.13a2.16,2.16,0,0,1,2,1.93C186.87,302.05,187.57,307.47,188.25,312.9Z"/><path class="cls-11" d="M315.78,323.24c-1.41,3.83-4.44,3.24-7.46,2a2.78,2.78,0,0,0-1,0c-6.6-5.17-14-9-21.6-12.38-2.19-2.23-4.41-4.86-1.76-7.72,2.25-2.44,5.23-1,7.76.41,6.67,3.76,13.3,7.57,20,11.3C314.27,318.28,317.07,319.71,315.78,323.24Z"/><path class="cls-16" d="M682.09,436.13c-.59,4.86-4.53,4.5-7.87,5.06a4.4,4.4,0,0,0-4,1.76l-.07.05c-2.17.4-3.23,2.22-4.64,3.6-1.21.13-2.47.42-3.65.49-2,.13-3.77-.39-4.64-3.43h0c.25-.09.51-.16.77-.23l.25-.07c1-.3,2-.68,2.14-2.12l7.79-5.25h0C672.84,435,677.51,431.8,682.09,436.13Z"/><path class="cls-10" d="M667.58,292.92c-.66.73-1.28,1.5-2.23,2.62-1.11-1.48-1.81-2.61-2.7-3.56-1.55-1.66-4.85-4.2-4.58-4.63,1.57-2.59,4-4.62,6.07-7,1.16-1.34,1.78-.66,2.77.2C673.53,286.45,673.55,286.42,667.58,292.92Z"/><path class="cls-16" d="M190.16,329.62l-13.75-9.55a75.09,75.09,0,0,1,11.84-7.17c.64,3.57,1.36,7.12,1.87,10.71A49.61,49.61,0,0,1,190.16,329.62Z"/><path class="cls-4" d="M307.33,325.24a6,6,0,0,1-1.93,3.82c-6.4-5.43-13.8-9.25-21.17-13.11a4.81,4.81,0,0,1,1.5-3.09C293.35,316.25,300.73,320.07,307.33,325.24Z"/><path class="cls-10" d="M215.25,482.7c-1.7,2.44-3.55,5.67-6,5.57-2.67-.11-5.41-3-5.77-6s3.31-5.1,5.06-5.19C211.44,476.93,212.87,480.6,215.25,482.7Z"/><polygon class="cls-2" points="668.21 435.97 668.22 435.97 668.21 435.98 668.21 435.97"/><path class="cls-10" d="M236.66,274.93c.05,2.45-1.86,3.88-4.25,3.87-2.75,0-4.17-1.76-4-4.5.11-2.51,1.61-3.81,4-4.11A4.76,4.76,0,0,1,236.66,274.93Z"/><path class="cls-2" d="M544.22,682.94h0v0Z"/><path class="cls-2" d="M544.21,682.92h0v0Z"/><path class="cls-11" d="M858.36,356.91c-.24-1.45-2-1.44-3.21-1.93-25.43-10.7-50.93-21.24-76.3-32.09-16-6.83-32.2-13.06-48-20.31-2.81-1.29-5.73-5.08-9.88-2.74,0,1.79,1.08,3.12,1.8,4.59q14.75,30.17,29.52,60.3c7.82,15.87,15.79,31.66,23.59,47.53,1.25,2.55,2.1,3.82,4.86,1.35,7.32-6.53,14.87-12.81,22.32-19.19A75.88,75.88,0,0,1,814.44,385c-9.1-9.69-19.38-18.12-29.14-27.09-18.85-17.31-37.86-34.44-56.79-51.67a32.88,32.88,0,0,1-2.56-2.94c-.41-.17-1.06-.38-.61-.88s.82,0,.94.52c14.91,8,28.8,17.68,43.16,26.57,20.79,12.87,41.42,26,62.11,39,1.51.95,3.35,1.6,4.05,3.52l20-12.8C856.63,358.55,858.65,358.72,858.36,356.91Zm-134.63-55.3,0-.28.33.16Z"/><path class="cls-6" d="M865.82,647.68c-8.66-11.25-17.06-22.7-26.06-33.67-6.4-7.81-13.22-15.26-18.28-24.09a5.51,5.51,0,0,0-6.8-2.71,132.64,132.64,0,0,1-16.58,4.15,5.11,5.11,0,0,0-4,3.87C792,602,791.29,609,790.5,616c-.7,6-1.7,12.12-2.84,18-2,10.56-2.92,21.31-5.47,30.59,0,2.69-.09,4.19,0,5.68s.9,2.75,2.58,2.1c5.21-2,10.69-2.83,16.07-4.12,3.33-.8,5.51-2.56,5.67-7.07.28-7.66,2.55-8.78,10.47-10.59,3.61-.83,7.38-1.36,10.87-2.79,5.48-2.25,7.39-1.44,10.74,3.81,2,3.2,4.38,6.5,9,4.93a101.06,101.06,0,0,1,16.15-4.08C866.41,652,867.93,650.44,865.82,647.68Zm-47.66-16c-6.52,2.67-8,1.78-7.82-4.9.11-3.83.29-7.59,2.91-11.4,3,3.83,6,7.21,8.4,11C823.74,629.81,820.76,630.59,818.16,631.65Z"/><path class="cls-14" d="M741.27,568c-1.53,6.17-6.71,9.77-10.51,14.2-20.43,23.83-41.81,46.83-63.47,69.54-10.32,10.83-21.33,21-32.23,31.28-4.08,3.83-8.71,7.07-13.09,10.58-1.22,1-2.68,1.93-4.05.87s-.42-2.75.05-4.13c1.55-4.44,4.14-8.34,6.65-12.24,17-26.3,36.11-51,55.52-75.46,12-15.1,24.2-30,36.34-45,1.78-2.19,3.47-4.48,5.89-6.05L728,556C731.71,560.84,737,563.83,741.27,568Z"/><path class="cls-14" d="M835.6,372c-2.69,11-5.72,22-9.26,32.76-.39,1.17-.53,2.27-2.07,2.24-3.36-7.32-5.74-15.07-9.83-22.06-9.1-9.69-19.38-18.12-29.14-27.09-18.85-17.31-37.86-34.44-56.79-51.67a32.88,32.88,0,0,1-2.56-2.94l.33-.36c14.91,8,28.8,17.68,43.16,26.57,20.79,12.87,41.42,26,62.11,39C833.06,369.45,834.9,370.1,835.6,372Z"/><path class="cls-7" d="M799.81,490.43a34.79,34.79,0,0,1-3.32,2.21c-4.62,2.6-5.85,6.22-4.2,11.32,3.24,10-.63,16.84-10.86,19.8-1.75.51-3.57.8-5.35,1.19-4.17-1.57-8.39-3-11.72-6.17a25.22,25.22,0,0,1-3.47-6.94c-2.5-8.95,2.07-15.43,7.74-21.35s13-9.08,20.75-11.31c10.79-3.1,13.76-6,17.16-17.07C811.89,470.65,808.73,484,799.81,490.43Z"/><path class="cls-11" d="M776.08,525c-9.66,13.82-19.57,27.44-30.54,40.26-1.16,1.36-2,3.14-4.27,2.82-4.23-4.2-9.56-7.19-13.24-12,6.05-6.68,12-13.45,18.18-20,5.71-6.09,10.84-12.81,18.15-17.22C767.69,521.92,771.91,523.38,776.08,525Z"/><path class="cls-5" d="M764.36,518.78c-7.31,4.41-12.44,11.13-18.15,17.22-6.16,6.58-12.13,13.35-18.18,20l-5.66-4.37c.85-3,3.06-5.09,5-7.22,9.44-10.2,18.78-20.49,28.86-30.08,1.34-1.27,2.56-2.64,4.63-2.52A25.22,25.22,0,0,0,764.36,518.78Z"/><path class="cls-10" d="M893.11,451.74a11.8,11.8,0,0,1-11.67,11.19c-6.15-.1-11.21-5-11.24-10.88,0-7.17,4.08-11.1,11.59-11.07C888,441,893.29,446,893.11,451.74Z"/><path class="cls-4" d="M824.27,407c-1.24,1.37-2,.09-2.87-.54-4.51-3.28-9-6.57-13.49-9.9-1.47-1.1-2.94-2.12-4.86-2.16A75.88,75.88,0,0,1,814.44,385C818.53,392,820.91,399.7,824.27,407Z"/><path class="cls-11" d="M727.12,656.51c-3.28.31-4.73-2-4.67-5a4.38,4.38,0,0,1,4.69-4.64c3.18-.07,4.77,1.7,4.94,3.28C732.35,655.25,729.77,656.26,727.12,656.51Z"/><path class="cls-10" d="M844.11,211.44a4.12,4.12,0,0,1-4.56,4.18c-2.79-.15-3.39-2.65-3.34-5.18.07-2.93,1.82-3.59,4.34-3.37C843.3,207.22,844.11,209.15,844.11,211.44Z"/><path class="cls-14" d="M281.17,641.7q-3,19.56-5.93,39.13c-9.14.47-18.27.38-27.41,0q3.09-19.1,6.19-38.19c.34-4.28,3.43-5.35,6.91-5.52,4.14-.22,8.32.16,12.45-.14C277.25,636.74,279.65,638.35,281.17,641.7Z"/><path class="cls-14" d="M390.38,635c-4.16,0-8.32-.14-12.47,0-3.74.16-4.92-2.15-3.22-4.58,7.13-10.18,5.56-21.65,5.6-32.91q.07-29.19.08-58.37l8.14,0a4.25,4.25,0,0,1,.21.43,4.43,4.43,0,0,1,.15.43,2.45,2.45,0,0,1,.08.29,5.62,5.62,0,0,1,.09.57,5.44,5.44,0,0,1,0,.57q0,.32,0,.63c0,.16,0,.33-.06.5-.06.46-.16.91-.26,1.37l-.09.47c0,.2-.08.41-.11.61a3,3,0,0,0-.06.42,7.68,7.68,0,0,0-.08,1.06c.16,21.78.05,43.57.13,65.35,0,6.62,2.33,12.86,4.72,18.84C394.82,634.61,393.58,635,390.38,635Z"/><path class="cls-8" d="M578.13,816.52c-2.34.27-2.61,1.87-2.92,3.86-1.75,11.32-9.06,17.56-20.46,17.59q-19.74.06-39.49,0c-12.15-.06-19.2-6.18-21-18.22-.24-1.67-.58-2.88-2.36-3.25,0-1.56,1.6-1.44,2.31-2.24,2.1.15,3.2-1,4.29-2.71,4.27-6.78,10.7-9.61,18.54-9.61,11.45,0,22.91.08,34.37,0,8.61-.08,15.59,2.74,20.1,10.43a3.22,3.22,0,0,0,2.73,1.88C575.13,815.69,578.07,813.71,578.13,816.52Z"/><path class="cls-10" d="M518.18,793.72c-10.5-6.06-21-9.35-31.75-9.05-.36,0-.72,0-1.08.05a1.53,1.53,0,0,0-.37,0c-.33,0-.65,0-1,.06h0l-1.56.15c-.55.06-1.11.13-1.66.21-1.1.16-2.21.36-3.32.61-.28.05-.56.12-.84.19-.46.1-.91.21-1.37.34s-1.15.31-1.73.49l-.27.08-.7.22a54.83,54.83,0,0,0-5.14,1.94h0l-.76.52a390.57,390.57,0,0,1-44,8.84c-12.58,1-25.14,2.16-37.73,3-35.25,2.26-70.52,1.92-105.78.24-1.28-.07-3.08.59-3.87-1.42,1.48-1.79,3.39-.82,5.07-.76,45.94,1.77,91.83,2.18,137.59-3.31a286.1,286.1,0,0,0,52.65-10.88c15-4.74,29.56-3.74,43.46,3.87C515.49,789.92,517.52,790.3,518.18,793.72Z"/><path class="cls-10" d="M792.08,801.73c-.86,1.85-2.35,1.25-3.49,1.24-26.32-.39-52.64-.91-79-1.23-14-.18-26-6.53-38.44-11.62a396.45,396.45,0,0,0-48.65-16.57c-22.64-6-43.15-1.37-62.31,11.33-1.46,1-2.62,2.54-5.63,2.71,2.16-3.86,5.43-5.28,8.25-7,19.19-11.61,39.55-14.86,61.42-9a411.21,411.21,0,0,1,59.61,21.48,75,75,0,0,0,30,6.47c24.49.27,49,.84,73.46,1.32C788.88,800.9,790.59,800.46,792.08,801.73Z"/><path class="cls-10" d="M654.25,801.91c-.22.84-.87.8-1.54.46-1.19-.6-2.38-1.2-3.57-1.77-19.53-9.33-40-13.08-61.51-10a22.69,22.69,0,0,1-3,.23c-.23,0-.46-.38-1.72-1.51a76.55,76.55,0,0,1,20.93-2.15,110.66,110.66,0,0,1,47,11.78,24.93,24.93,0,0,1,3,1.71A1.45,1.45,0,0,1,654.25,801.91Z"/><path class="cls-10" d="M494.25,814.25c-.71.8-2.33.68-2.31,2.24-7.45.86-14.92.23-22.38.41-3.32.07-3.16-2.22-3.15-4.41,0-7.64.13-15.28.2-22.93l.76-.52h0a20,20,0,0,1,.32,2c.06.56.11,1.13.14,1.69.29,5.35-.92,10.66-1,16,0,3.9,1.23,5.2,5.13,5.18C479.41,813.88,486.85,813.36,494.25,814.25Z"/><path class="cls-3" d="M279.49,689.11c-4.71,13.35-11.93,18.52-24.58,17.63-10.88-.78-18.62-13-14.49-23,1.45-3.51,5-1.78,7.41-2.85,9.14.34,18.27.43,27.41,0C280.5,682.5,281.28,684,279.49,689.11Z"/><path class="cls-1" d="M619.91,338.91c-9.49,7.78-20.49,13-31.42,18.29-4,2-8.16,3.73-12.25,5.58-.32-5.7-2.77-10.78-4.68-16-.56-1.53-1-3.11-1.52-4.66,15.52-5,31.24-9,47.67-9.31,1.57,0,3.64-.4,4.41,1.51C623,336.39,621.31,337.77,619.91,338.91Z"/><path class="cls-1" d="M415.31,419.29a176.45,176.45,0,0,1-33.68,6.5c-2.91.28-6.94,1-8.05-2-1.19-3.22,2.66-4.93,5-6.57A156.2,156.2,0,0,1,407,401.62c1.76,4.64,3.59,9.25,5.23,13.93A7.72,7.72,0,0,0,415.31,419.29Z"/><path class="cls-2" d="M345.19,441.5l46.3-9.19C376.31,436.62,361,440.31,345.19,441.5Z"/><path class="cls-2" d="M524.56,391.07l20.74-8.21c.15.35.29.71.43,1.06L525,392.12Z"/><path class="cls-2" d="M572.23,372c-2.93,2.86-6.75,3.7-10.54,4.61A32.81,32.81,0,0,1,572.21,372Z"/><path class="cls-2" d="M603.84,358.12a24.29,24.29,0,0,1-10.45,4.06l10-4.92Z"/><path class="cls-4" d="M613.43,353.34a21.77,21.77,0,0,1-9.6,4.78c-.13-.29-.27-.57-.41-.86a24.14,24.14,0,0,1,9.59-4.48A2.93,2.93,0,0,1,613.43,353.34Z"/><path class="cls-2" d="M510.2,389.09a26.68,26.68,0,0,1-10,3.75A11,11,0,0,1,510.2,389.09Z"/><path class="cls-2" d="M559,377.66c-3.43,2.74-6.32,3.22-9.13,3.9C552.18,379.62,554.93,378.8,559,377.66Z"/><path class="cls-2" d="M572.21,372a20.36,20.36,0,0,1,8.69-3.62c-2.62,1.87-5.3,3.58-8.67,3.64Z"/><path class="cls-2" d="M590.71,364.13c-3.17,2-5.42,3.35-9.16,3.73C584.64,365.89,586.91,364.58,590.71,364.13Z"/><path class="cls-4" d="M621.44,349.21a15.2,15.2,0,0,1-8,4.12,3.2,3.2,0,0,0-.42-.55,13.45,13.45,0,0,1,8-4Z"/><path class="cls-4" d="M630.44,344.22c-1.78,2.1-4.21,2.81-6.73,3.37,1.32-2.61,3.62-3.49,6.24-3.83Z"/><path class="cls-2" d="M515.19,387.22a7,7,0,0,1-4.84,1.8C511,385.82,513.41,387.37,515.19,387.22Z"/><path class="cls-2" d="M523.73,392.11c-1.21.75-1.71,1.13-2.26,1.38a6.85,6.85,0,0,1-1.35.3c-.41-1.15.66-1.16,1.12-1.42S522.37,392.22,523.73,392.11Z"/><path class="cls-4" d="M631,342.75c.7-.83,1.34-1.8,2.65-1.38.15,0,.31.57.22.77-.46,1.06-1.49.94-2.39,1.08C631.29,343.07,631.13,342.91,631,342.75Z"/><path class="cls-4" d="M636.06,340.9a5.14,5.14,0,0,1-.58-.76,9,9,0,0,1,.92-.82c.17.21.52.52.47.61A5,5,0,0,1,636.06,340.9Z"/><path class="cls-4" d="M640,336.78l2-1,.46.44-2,1Z"/><path class="cls-2" d="M559.73,377.23l.31.28c-.12.08-.24.22-.35.21s-.2-.17-.3-.26Z"/><path class="cls-2" d="M548.09,382.49c-.13.1-.27.28-.39.28s-.24-.21-.36-.32c.13-.1.26-.29.39-.28S548,382.37,548.09,382.49Z"/><path class="cls-4" d="M640.44,337.22l-1,1-.43-.43,1-1Z"/><path class="cls-4" d="M630,343.76l1-1c.15.16.31.32.48.47l-1,1Z"/><path class="cls-4" d="M642,335.76l1-1c.14.14.28.29.43.42l-1,1Z"/><path class="cls-4" d="M643,334.77c.25-.32.5-.78.9-.19.05.06-.31.4-.47.61C643.28,335.06,643.14,334.91,643,334.77Z"/><path class="cls-4" d="M639.41,338.21c-.28.34-.55.8-1,.18,0-.06.35-.4.53-.61Z"/><path class="cls-4" d="M621,348.77c.27-.44.56-.83,1-.22,0,0-.37.43-.57.66Z"/><path class="cls-2" d="M591.76,363.16l.32.36c-.13.09-.26.27-.38.26s-.23-.19-.35-.31Z"/><path class="cls-11" d="M637.12,446.38c-.19,3.11-2.59,4.68-5.28,4.72h-.23c-3.55.11-5.41-1.36-5.33-4.39.1-3.79,3.22-3.62,5.86-3.82a8.84,8.84,0,0,1,1.26,0C635.5,443,637.26,444,637.12,446.38Z"/><path class="cls-6" d="M275.09,429.11c0,7.68-3.35,9.72-10,6q-25.66-14.28-51.26-28.7c-1.71-1-3.5-1.92-4.18-4a5.19,5.19,0,0,1,1.24-5.52c1.29-1.33,2.64-1.49,4.47-.68,16.75,7.4,32.7,5.22,48.07-4.12a40.4,40.4,0,0,1,10.32-4.79c1.18,1.53.95,3.25,1,4.88C274.86,404.47,275,416.79,275.09,429.11Z"/><path class="cls-16" d="M726.28,302.9l-.33.36c-.41-.17-1.06-.38-.61-.88S726.16,302.35,726.28,302.9Z"/><polygon class="cls-16" points="724.08 301.49 723.74 301.61 723.75 301.34 724.08 301.49"/><path class="cls-10" d="M529.31,787.39c-9.54-8-24.11-17.48-42.87-19.39-21.24-2.16-32.37,7-60.15,13.71-29.06,7-52.46,5.57-68.45,4.59-20-1.23-51.28-5.72-87.66-22.36,7.7-27.47,32.29-108.49,65.18-108.11,3.8,0,6.58,1.16,15,5.63,51.81,27.38,52.75,41.22,76.55,48.76,29.69,9.42,46.84-6.21,76.48,7.92,13.05,6.22,18,13.2,20.09,16.85,7,12.1,4.87,26,6.18,26,1.49,0-.88-17.95,9.28-30.64,6.6-8.24,15.88-11,20.09-12.25,32.77-9.75,69.61,22.49,123.66,30.64,53.55,8.07,81.37-13.93,105.74,7.8,12.16,10.84,16.29,26.17,17.87,37.52L739.73,790a261.38,261.38,0,0,1-55.34-9.45c-28.73-8.17-72.94-19.81-87.65-18.6-37.93,3.12-58.48,26.22-58.48,26.22"/></g></g></svg>